<mxfile host="app.diagrams.net" modified="2020-11-12T14:36:46.333Z" agent="5.0 (Windows)" etag="afeWn17Es4c5f8b0r-Sy" version="13.9.7" type="github">
  <diagram id="C5RBs43oDa-KdzZeNtuy" name="Page-1">
    <mxGraphModel dx="782" dy="483" grid="1" gridSize="10" guides="1" tooltips="1" connect="1" arrows="1" fold="1" page="1" pageScale="1" pageWidth="827" pageHeight="1169" math="0" shadow="0">
      <root>
        <mxCell id="WIyWlLk6GJQsqaUBKTNV-0" />
        <mxCell id="WIyWlLk6GJQsqaUBKTNV-1" parent="WIyWlLk6GJQsqaUBKTNV-0" />
        <mxCell id="irV0QH4pS9CSHNHQbzm--10" value="" style="edgeStyle=orthogonalEdgeStyle;rounded=0;orthogonalLoop=1;jettySize=auto;html=1;" parent="WIyWlLk6GJQsqaUBKTNV-1" edge="1">
          <mxGeometry relative="1" as="geometry">
            <mxPoint x="350" y="210" as="targetPoint" />
          </mxGeometry>
        </mxCell>
        <mxCell id="irV0QH4pS9CSHNHQbzm--2" value="" style="edgeStyle=orthogonalEdgeStyle;rounded=0;orthogonalLoop=1;jettySize=auto;html=1;" parent="WIyWlLk6GJQsqaUBKTNV-1" source="irV0QH4pS9CSHNHQbzm--0" target="irV0QH4pS9CSHNHQbzm--1" edge="1">
          <mxGeometry relative="1" as="geometry" />
        </mxCell>
        <mxCell id="irV0QH4pS9CSHNHQbzm--0" value="start" style="ellipse;whiteSpace=wrap;html=1;" parent="WIyWlLk6GJQsqaUBKTNV-1" vertex="1">
          <mxGeometry x="590" y="100" width="80" height="30" as="geometry" />
        </mxCell>
        <mxCell id="irV0QH4pS9CSHNHQbzm--4" value="" style="edgeStyle=orthogonalEdgeStyle;rounded=0;orthogonalLoop=1;jettySize=auto;html=1;" parent="WIyWlLk6GJQsqaUBKTNV-1" source="irV0QH4pS9CSHNHQbzm--1" edge="1">
          <mxGeometry relative="1" as="geometry">
            <mxPoint x="630" y="295" as="targetPoint" />
          </mxGeometry>
        </mxCell>
        <mxCell id="irV0QH4pS9CSHNHQbzm--1" value="input n" style="shape=parallelogram;perimeter=parallelogramPerimeter;whiteSpace=wrap;html=1;fixedSize=1;" parent="WIyWlLk6GJQsqaUBKTNV-1" vertex="1">
          <mxGeometry x="575" y="170" width="110" height="50" as="geometry" />
        </mxCell>
        <mxCell id="irV0QH4pS9CSHNHQbzm--6" value="" style="edgeStyle=orthogonalEdgeStyle;rounded=0;orthogonalLoop=1;jettySize=auto;html=1;" parent="WIyWlLk6GJQsqaUBKTNV-1" edge="1">
          <mxGeometry relative="1" as="geometry">
            <mxPoint x="630" y="355" as="sourcePoint" />
            <mxPoint x="630" y="560" as="targetPoint" />
          </mxGeometry>
        </mxCell>
        <mxCell id="irV0QH4pS9CSHNHQbzm--8" value="" style="edgeStyle=orthogonalEdgeStyle;rounded=0;orthogonalLoop=1;jettySize=auto;html=1;entryX=0;entryY=0.5;entryDx=0;entryDy=0;" parent="WIyWlLk6GJQsqaUBKTNV-1" target="irV0QH4pS9CSHNHQbzm--11" edge="1">
          <mxGeometry relative="1" as="geometry">
            <mxPoint x="670" y="600" as="sourcePoint" />
            <mxPoint x="730" y="465" as="targetPoint" />
          </mxGeometry>
        </mxCell>
        <mxCell id="irV0QH4pS9CSHNHQbzm--63" value="" style="edgeStyle=orthogonalEdgeStyle;rounded=0;orthogonalLoop=1;jettySize=auto;html=1;" parent="WIyWlLk6GJQsqaUBKTNV-1" source="irV0QH4pS9CSHNHQbzm--5" target="irV0QH4pS9CSHNHQbzm--62" edge="1">
          <mxGeometry relative="1" as="geometry" />
        </mxCell>
        <mxCell id="irV0QH4pS9CSHNHQbzm--5" value="check if i&amp;lt;n" style="rhombus;whiteSpace=wrap;html=1;" parent="WIyWlLk6GJQsqaUBKTNV-1" vertex="1">
          <mxGeometry x="590" y="560" width="80" height="80" as="geometry" />
        </mxCell>
        <mxCell id="irV0QH4pS9CSHNHQbzm--19" style="edgeStyle=orthogonalEdgeStyle;rounded=0;orthogonalLoop=1;jettySize=auto;html=1;exitX=1;exitY=0.5;exitDx=0;exitDy=0;entryX=1;entryY=0.5;entryDx=0;entryDy=0;" parent="WIyWlLk6GJQsqaUBKTNV-1" source="irV0QH4pS9CSHNHQbzm--11" target="irV0QH4pS9CSHNHQbzm--20" edge="1">
          <mxGeometry relative="1" as="geometry">
            <mxPoint x="840" y="490" as="targetPoint" />
            <Array as="points">
              <mxPoint x="850" y="600" />
              <mxPoint x="850" y="473" />
            </Array>
          </mxGeometry>
        </mxCell>
        <mxCell id="irV0QH4pS9CSHNHQbzm--66" style="edgeStyle=orthogonalEdgeStyle;rounded=0;orthogonalLoop=1;jettySize=auto;html=1;exitX=0.5;exitY=1;exitDx=0;exitDy=0;entryX=0.5;entryY=0;entryDx=0;entryDy=0;" parent="WIyWlLk6GJQsqaUBKTNV-1" source="irV0QH4pS9CSHNHQbzm--11" target="irV0QH4pS9CSHNHQbzm--48" edge="1">
          <mxGeometry relative="1" as="geometry" />
        </mxCell>
        <mxCell id="irV0QH4pS9CSHNHQbzm--11" value="check if n%i==0" style="rhombus;whiteSpace=wrap;html=1;" parent="WIyWlLk6GJQsqaUBKTNV-1" vertex="1">
          <mxGeometry x="730" y="560" width="80" height="80" as="geometry" />
        </mxCell>
        <mxCell id="irV0QH4pS9CSHNHQbzm--16" value="true" style="text;html=1;strokeColor=none;fillColor=none;align=center;verticalAlign=middle;whiteSpace=wrap;rounded=0;" parent="WIyWlLk6GJQsqaUBKTNV-1" vertex="1">
          <mxGeometry x="780" y="640" width="40" height="20" as="geometry" />
        </mxCell>
        <mxCell id="irV0QH4pS9CSHNHQbzm--17" value="true" style="text;html=1;strokeColor=none;fillColor=none;align=center;verticalAlign=middle;whiteSpace=wrap;rounded=0;" parent="WIyWlLk6GJQsqaUBKTNV-1" vertex="1">
          <mxGeometry x="680" y="575" width="40" height="20" as="geometry" />
        </mxCell>
        <mxCell id="irV0QH4pS9CSHNHQbzm--18" value="false" style="text;html=1;strokeColor=none;fillColor=none;align=center;verticalAlign=middle;whiteSpace=wrap;rounded=0;" parent="WIyWlLk6GJQsqaUBKTNV-1" vertex="1">
          <mxGeometry x="800" y="575" width="40" height="20" as="geometry" />
        </mxCell>
        <mxCell id="irV0QH4pS9CSHNHQbzm--21" style="edgeStyle=orthogonalEdgeStyle;rounded=0;orthogonalLoop=1;jettySize=auto;html=1;" parent="WIyWlLk6GJQsqaUBKTNV-1" source="irV0QH4pS9CSHNHQbzm--20" edge="1">
          <mxGeometry relative="1" as="geometry">
            <mxPoint x="630" y="472.5" as="targetPoint" />
          </mxGeometry>
        </mxCell>
        <mxCell id="irV0QH4pS9CSHNHQbzm--20" value="i++" style="whiteSpace=wrap;html=1;" parent="WIyWlLk6GJQsqaUBKTNV-1" vertex="1">
          <mxGeometry x="707" y="450" width="120" height="45" as="geometry" />
        </mxCell>
        <mxCell id="irV0QH4pS9CSHNHQbzm--26" style="edgeStyle=orthogonalEdgeStyle;rounded=0;orthogonalLoop=1;jettySize=auto;html=1;exitX=0.5;exitY=1;exitDx=0;exitDy=0;" parent="WIyWlLk6GJQsqaUBKTNV-1" edge="1">
          <mxGeometry relative="1" as="geometry">
            <mxPoint x="770" y="730" as="sourcePoint" />
            <mxPoint x="770" y="730" as="targetPoint" />
          </mxGeometry>
        </mxCell>
        <mxCell id="irV0QH4pS9CSHNHQbzm--68" style="edgeStyle=orthogonalEdgeStyle;rounded=0;orthogonalLoop=1;jettySize=auto;html=1;exitX=0.5;exitY=1;exitDx=0;exitDy=0;entryX=0.5;entryY=0;entryDx=0;entryDy=0;" parent="WIyWlLk6GJQsqaUBKTNV-1" source="irV0QH4pS9CSHNHQbzm--48" target="irV0QH4pS9CSHNHQbzm--50" edge="1">
          <mxGeometry relative="1" as="geometry" />
        </mxCell>
        <mxCell id="irV0QH4pS9CSHNHQbzm--48" value="c=2" style="whiteSpace=wrap;html=1;" parent="WIyWlLk6GJQsqaUBKTNV-1" vertex="1">
          <mxGeometry x="710" y="760" width="120" height="60" as="geometry" />
        </mxCell>
        <mxCell id="irV0QH4pS9CSHNHQbzm--55" value="" style="edgeStyle=orthogonalEdgeStyle;rounded=0;orthogonalLoop=1;jettySize=auto;html=1;" parent="WIyWlLk6GJQsqaUBKTNV-1" source="irV0QH4pS9CSHNHQbzm--50" target="irV0QH4pS9CSHNHQbzm--54" edge="1">
          <mxGeometry relative="1" as="geometry" />
        </mxCell>
        <mxCell id="irV0QH4pS9CSHNHQbzm--69" style="edgeStyle=orthogonalEdgeStyle;rounded=0;orthogonalLoop=1;jettySize=auto;html=1;exitX=0.5;exitY=1;exitDx=0;exitDy=0;" parent="WIyWlLk6GJQsqaUBKTNV-1" source="irV0QH4pS9CSHNHQbzm--50" edge="1">
          <mxGeometry relative="1" as="geometry">
            <mxPoint x="680" y="1050" as="targetPoint" />
          </mxGeometry>
        </mxCell>
        <mxCell id="irV0QH4pS9CSHNHQbzm--50" value="check if &lt;br&gt;c&amp;lt;i" style="rhombus;whiteSpace=wrap;html=1;" parent="WIyWlLk6GJQsqaUBKTNV-1" vertex="1">
          <mxGeometry x="640" y="900" width="80" height="80" as="geometry" />
        </mxCell>
        <mxCell id="irV0QH4pS9CSHNHQbzm--58" value="" style="edgeStyle=orthogonalEdgeStyle;rounded=0;orthogonalLoop=1;jettySize=auto;html=1;entryX=1;entryY=0.5;entryDx=0;entryDy=0;" parent="WIyWlLk6GJQsqaUBKTNV-1" source="irV0QH4pS9CSHNHQbzm--54" target="irV0QH4pS9CSHNHQbzm--20" edge="1">
          <mxGeometry relative="1" as="geometry">
            <mxPoint x="1060" y="560" as="targetPoint" />
            <Array as="points">
              <mxPoint x="1090" y="940" />
              <mxPoint x="1090" y="473" />
            </Array>
          </mxGeometry>
        </mxCell>
        <mxCell id="irV0QH4pS9CSHNHQbzm--60" style="edgeStyle=orthogonalEdgeStyle;rounded=0;orthogonalLoop=1;jettySize=auto;html=1;exitX=0.5;exitY=0;exitDx=0;exitDy=0;entryX=0.5;entryY=1;entryDx=0;entryDy=0;" parent="WIyWlLk6GJQsqaUBKTNV-1" source="irV0QH4pS9CSHNHQbzm--54" target="irV0QH4pS9CSHNHQbzm--56" edge="1">
          <mxGeometry relative="1" as="geometry" />
        </mxCell>
        <mxCell id="irV0QH4pS9CSHNHQbzm--54" value="if &lt;br&gt;i%c==0" style="rhombus;whiteSpace=wrap;html=1;" parent="WIyWlLk6GJQsqaUBKTNV-1" vertex="1">
          <mxGeometry x="900" y="900" width="80" height="80" as="geometry" />
        </mxCell>
        <mxCell id="irV0QH4pS9CSHNHQbzm--61" style="edgeStyle=orthogonalEdgeStyle;rounded=0;orthogonalLoop=1;jettySize=auto;html=1;exitX=0;exitY=0.5;exitDx=0;exitDy=0;" parent="WIyWlLk6GJQsqaUBKTNV-1" source="irV0QH4pS9CSHNHQbzm--56" edge="1">
          <mxGeometry relative="1" as="geometry">
            <mxPoint x="770" y="860" as="targetPoint" />
            <Array as="points">
              <mxPoint x="770" y="860" />
              <mxPoint x="770" y="860" />
            </Array>
          </mxGeometry>
        </mxCell>
        <mxCell id="irV0QH4pS9CSHNHQbzm--56" value="c++;" style="rounded=0;whiteSpace=wrap;html=1;" parent="WIyWlLk6GJQsqaUBKTNV-1" vertex="1">
          <mxGeometry x="878" y="840" width="124" height="40" as="geometry" />
        </mxCell>
        <mxCell id="aHWdwucO2dNkd94kttqI-6" style="edgeStyle=orthogonalEdgeStyle;rounded=0;orthogonalLoop=1;jettySize=auto;html=1;exitX=0.5;exitY=1;exitDx=0;exitDy=0;" edge="1" parent="WIyWlLk6GJQsqaUBKTNV-1" source="irV0QH4pS9CSHNHQbzm--57">
          <mxGeometry relative="1" as="geometry">
            <mxPoint x="1090" y="950" as="targetPoint" />
          </mxGeometry>
        </mxCell>
        <mxCell id="irV0QH4pS9CSHNHQbzm--57" value="print i" style="shape=parallelogram;perimeter=parallelogramPerimeter;whiteSpace=wrap;html=1;fixedSize=1;" parent="WIyWlLk6GJQsqaUBKTNV-1" vertex="1">
          <mxGeometry x="620" y="1050" width="120" height="60" as="geometry" />
        </mxCell>
        <mxCell id="irV0QH4pS9CSHNHQbzm--62" value="print n" style="shape=parallelogram;perimeter=parallelogramPerimeter;whiteSpace=wrap;html=1;fixedSize=1;" parent="WIyWlLk6GJQsqaUBKTNV-1" vertex="1">
          <mxGeometry x="570" y="670" width="120" height="60" as="geometry" />
        </mxCell>
        <mxCell id="irV0QH4pS9CSHNHQbzm--70" value="assumed i=2" style="rounded=0;whiteSpace=wrap;html=1;" parent="WIyWlLk6GJQsqaUBKTNV-1" vertex="1">
          <mxGeometry x="570" y="280" width="120" height="60" as="geometry" />
        </mxCell>
        <mxCell id="aHWdwucO2dNkd94kttqI-0" value="true" style="text;html=1;strokeColor=none;fillColor=none;align=center;verticalAlign=middle;whiteSpace=wrap;rounded=0;" vertex="1" parent="WIyWlLk6GJQsqaUBKTNV-1">
          <mxGeometry x="720" y="920" width="40" height="20" as="geometry" />
        </mxCell>
        <mxCell id="aHWdwucO2dNkd94kttqI-1" value="false" style="text;html=1;strokeColor=none;fillColor=none;align=center;verticalAlign=middle;whiteSpace=wrap;rounded=0;" vertex="1" parent="WIyWlLk6GJQsqaUBKTNV-1">
          <mxGeometry x="630" y="980" width="40" height="20" as="geometry" />
        </mxCell>
        <mxCell id="aHWdwucO2dNkd94kttqI-2" value="true" style="text;html=1;strokeColor=none;fillColor=none;align=center;verticalAlign=middle;whiteSpace=wrap;rounded=0;" vertex="1" parent="WIyWlLk6GJQsqaUBKTNV-1">
          <mxGeometry x="980" y="920" width="40" height="20" as="geometry" />
        </mxCell>
        <mxCell id="aHWdwucO2dNkd94kttqI-3" value="false" style="text;html=1;strokeColor=none;fillColor=none;align=center;verticalAlign=middle;whiteSpace=wrap;rounded=0;" vertex="1" parent="WIyWlLk6GJQsqaUBKTNV-1">
          <mxGeometry x="940" y="880" width="40" height="20" as="geometry" />
        </mxCell>
      </root>
    </mxGraphModel>
  </diagram>
</mxfile>
